<?xml version="1.0" standalone="no"?>
<!DOCTYPE svg PUBLIC "-//W3C//DTD SVG 20010904//EN"
 "http://www.w3.org/TR/2001/REC-SVG-20010904/DTD/svg10.dtd">
<svg version="1.0" xmlns="http://www.w3.org/2000/svg"
 width="78.000000pt" height="78.000000pt" viewBox="0 0 78.000000 78.000000"
 preserveAspectRatio="xMidYMid meet">
<metadata>
Created by potrace 1.11, written by Peter Selinger 2001-2013
</metadata>
<g transform="translate(0.000000,78.000000) scale(0.100000,-0.100000)"
fill="#000000" stroke="none">
<path d="M110 739 c-31 -32 -45 -78 -38 -133 3 -28 1 -33 -9 -24 -8 6 -14 9
-16 7 -23 -40 -27 -54 -21 -71 3 -12 1 -24 -6 -28 -10 -6 -8 -18 8 -54 26 -55
26 -57 6 -49 -11 4 -8 -8 12 -46 15 -28 34 -51 41 -51 7 0 13 -5 13 -11 0 -6
27 -37 60 -69 32 -31 62 -69 66 -84 3 -14 10 -26 15 -26 5 0 9 -4 9 -10 0 -16
40 -51 50 -45 6 4 12 0 15 -7 4 -10 23 -12 83 -8 79 6 132 29 132 56 0 8 4 14
9 14 5 0 12 12 15 26 4 15 43 62 87 105 44 43 85 92 90 109 6 16 15 30 20 30
5 0 9 5 9 11 0 6 -7 9 -15 5 -21 -8 -19 5 8 55 15 30 18 43 10 46 -8 3 -10 15
-6 35 5 24 3 29 -7 23 -10 -6 -12 -3 -7 14 6 26 -20 42 -34 20 -5 -9 -6 0 -2
23 20 129 -84 213 -167 135 -17 -16 -30 -24 -30 -17 0 6 -4 8 -10 5 -6 -3 -10
-2 -10 3 0 15 -197 9 -212 -6 -10 -10 -17 -7 -38 15 -37 41 -90 41 -130 2z
m-13 -61 c-3 -8 -6 -5 -6 6 -1 11 2 17 5 13 3 -3 4 -12 1 -19z m590 0 c-3 -8
-6 -5 -6 6 -1 11 2 17 5 13 3 -3 4 -12 1 -19z"/>
</g>
</svg>
